# xmcd CD database file
# Copyright (C) 1993-1998 Ti Kan
# 
# Track frame offsets:
#     150
#     15812
#     35572
#     54612
#     75432
#     95762
#     121462
#     137442
#     154505
#     175220
#     194655
# 
# Disc length: 2862 seconds
# 
# Revision: 1
# Processed by: cddbd v1.4b41PL1 Copyright (c) Steve Scherf et al.
# Submitted via: DiscPlay 4.0.3
# 
DISCID=850b2c0b
DTITLE=Premiere - Premier
DYEAR=1900
DGENRE=
TTITLE0=Somethin' About You
TTITLE1=If You Want My Love
TTITLE2=On My Mind
TTITLE3=Somethin' Just Ain't Right
TTITLE4=Stay
TTITLE5=Just Do Me Right
TTITLE6=No One Loves Me Like U Do
TTITLE7=Before I Let Go
TTITLE8=Nuthin' But Love
TTITLE9=Spread Love
TTITLE10=Bye Bye
EXTD=
EXTT0=
EXTT1=
EXTT2=
EXTT3=
EXTT4=
EXTT5=
EXTT6=
EXTT7=
EXTT8=
EXTT9=
EXTT10=
PLAYORDER=
